<svg width="32" height="32" viewBox="0 0 32 32" fill="none" xmlns="http://www.w3.org/2000/svg">
<path fill-rule="evenodd" clip-rule="evenodd" d="M26.5681 8.44659L29.6386 14.3255L29.6386 14.3256L29.6411 14.3303L27.4319 15.4304L24.358 9.55162L26.5681 8.44659ZM30.0872 15.2244L30.5333 16.1202L27.4458 17.6577C26.9583 17.9005 26.3662 17.7085 26.1138 17.226L22.1138 9.57595C21.9895 9.33814 21.9659 9.06032 22.0485 8.80498C22.131 8.54963 22.3128 8.33818 22.5528 8.21816L25.6749 6.6571C26.1414 6.42065 26.6824 6.37758 27.1805 6.53736C27.6796 6.69744 28.0952 7.04817 28.3369 7.51318C28.3372 7.51363 28.3374 7.51409 28.3376 7.51454L31.4089 13.3949C31.4094 13.3958 31.4099 13.3968 31.4104 13.3977C31.5342 13.6326 31.61 13.8899 31.6334 14.1545C31.6568 14.4202 31.6269 14.6878 31.5453 14.9417C31.4638 15.1956 31.3323 15.4306 31.1586 15.633C30.9849 15.8353 30.7725 16.0009 30.5339 16.1199L30.0872 15.2244Z" fill="#DD7E8B"/>
<path fill-rule="evenodd" clip-rule="evenodd" d="M5.4371 8.31157L2.36409 14.1953L4.56901 15.3022L7.6426 9.41433L5.4371 8.31157ZM4.81005 6.41237C5.30502 6.24894 5.84425 6.28521 6.31288 6.51346L6.32224 6.51801L9.44722 8.08056C9.68714 8.20053 9.86881 8.41185 9.95141 8.66706C10.034 8.92227 10.0106 9.19996 9.88648 9.43775L5.88648 17.1003C5.63376 17.5844 5.0394 17.7762 4.55134 17.5312L1.46743 15.983C1.23019 15.8659 1.01869 15.7026 0.84536 15.5027C0.670817 15.3013 0.538541 15.067 0.456395 14.8135C0.374249 14.56 0.343911 14.2926 0.367185 14.0272C0.39034 13.7631 0.466091 13.5063 0.589963 13.272L3.66288 7.38846C3.66305 7.38813 3.66322 7.38781 3.66338 7.38749C3.90403 6.92555 4.31541 6.5757 4.81005 6.41237Z" fill="#DD7E8B"/>
<path fill-rule="evenodd" clip-rule="evenodd" d="M4.21173 16.0224C4.55158 15.5871 5.17999 15.5096 5.61534 15.8495L12.4528 21.187L12.4678 21.1989L19.6673 22.9988C19.6752 22.9997 19.6832 22.9991 19.6909 22.9969C19.6986 22.9948 19.7057 22.9913 19.712 22.9865L24.2645 18.434L26.2385 16.1146C26.5964 15.694 27.2275 15.6433 27.6481 16.0012C28.0687 16.3591 28.1195 16.9903 27.7615 17.4109L25.7615 19.7609C25.7442 19.7812 25.726 19.8009 25.7071 19.8198L21.1071 24.4198C21.1028 24.4242 21.0985 24.4284 21.0941 24.4326C21.0904 24.4362 21.0867 24.4397 21.083 24.4431C20.8397 24.6707 20.5448 24.8359 20.2236 24.9247C19.9025 25.0134 19.5646 25.023 19.2389 24.9527C19.2284 24.9504 19.2179 24.948 19.2075 24.9454L11.9575 23.1329C11.9488 23.1307 11.9401 23.1284 11.9315 23.126C11.6704 23.0532 11.4269 22.9282 11.2156 22.7584L4.38466 17.426C3.94932 17.0862 3.87189 16.4578 4.21173 16.0224Z" fill="#DD7E8B"/>
<path fill-rule="evenodd" clip-rule="evenodd" d="M17.9142 10.1123L13.0279 14.9862C13.0271 14.9872 13.0265 14.9883 13.026 14.9895C13.0254 14.9912 13.0252 14.993 13.0253 14.9947C13.0254 14.9965 13.026 14.9982 13.0268 14.9998C13.0276 15.0013 13.0288 15.0027 13.0302 15.0037L13.7012 15.5132C14.221 15.9002 14.8519 16.1092 15.5 16.1092C16.149 16.1092 16.7807 15.8996 17.3009 15.5116C17.3012 15.5114 17.3016 15.5112 17.3019 15.5109L18.9 14.3123C19.2512 14.0489 19.7331 14.0454 20.0882 14.3036L25.5882 18.3036C26.0348 18.6284 26.1336 19.2538 25.8087 19.7005C25.4839 20.1471 24.8585 20.2459 24.4118 19.921L19.5091 16.3555L18.4981 17.1137C17.6322 17.76 16.5806 18.1092 15.5 18.1092C14.4195 18.1092 13.3678 17.76 12.5019 17.1137L12.4953 17.1088L11.8203 16.5963C11.5934 16.4238 11.4053 16.2047 11.2692 15.9542C11.1332 15.7038 11.052 15.4273 11.0308 15.1431C11.0097 14.8589 11.0492 14.5734 11.1466 14.3056C11.2441 14.0378 11.3973 13.7937 11.5962 13.5895L11.6063 13.5793L16.5071 8.69096C16.6924 8.50661 16.9122 8.36062 17.154 8.26133C17.3951 8.1623 17.6533 8.11167 17.914 8.11231C17.9146 8.11231 17.9153 8.11231 17.916 8.11232L17.9125 9.11231V8.11231H17.914H23C23.5523 8.11231 24 8.56003 24 9.11231C24 9.6646 23.5523 10.1123 23 10.1123H17.9142Z" fill="#DD7E8B"/>
<path fill-rule="evenodd" clip-rule="evenodd" d="M15.7632 8.06105L20.0868 10.0229C20.5897 10.2511 21.1824 10.0284 21.4106 9.52549C21.6388 9.02256 21.4161 8.42985 20.9132 8.20164L16.5882 6.23914L16.5868 6.23853C16.1548 6.04329 15.6675 6.00784 15.2118 6.13853L8.79435 8.01497C8.26426 8.16997 7.96019 8.72534 8.11519 9.25543C8.27018 9.78552 8.82556 10.0896 9.35564 9.93459L15.7632 8.06105Z" fill="#DD7E8B"/>
<path fill-rule="evenodd" clip-rule="evenodd" d="M6.24453 22.3448C6.60638 21.9276 7.23795 21.8827 7.65519 22.2445L10.4767 24.6916C10.4786 24.692 10.4805 24.6925 10.4823 24.6929L14.2448 25.6429C14.7803 25.7781 15.1048 26.3218 14.9696 26.8573C14.8344 27.3928 14.2907 27.7173 13.7552 27.5821L10.0027 26.6346C9.69199 26.5619 9.4042 26.4131 9.16524 26.2015L6.34482 23.7555C5.92758 23.3936 5.88268 22.7621 6.24453 22.3448Z" fill="#DD7E8B"/>
</svg>
