<svg width="32" height="32" viewBox="0 0 32 32" fill="none" xmlns="http://www.w3.org/2000/svg">
<path fill-rule="evenodd" clip-rule="evenodd" d="M12.5125 4.99072C10.5641 4.86892 8.63824 5.46265 7.09663 6.66041C5.55503 7.85817 4.50375 9.57755 4.14023 11.4956C3.77672 13.4137 4.12598 15.3985 5.12242 17.0773C5.26276 17.3137 5.29956 17.5975 5.22416 17.8619L4.46067 20.5395L7.13828 19.776C7.40269 19.7007 7.68647 19.7374 7.92291 19.8778C9.60168 20.8742 11.5865 21.2235 13.5046 20.86C15.4227 20.4965 17.142 19.4452 18.3398 17.9036C19.5376 16.362 20.1313 14.4361 20.0095 12.4877C19.8877 10.5393 19.0587 8.70235 17.6783 7.32192C16.2979 5.94149 14.4609 5.11252 12.5125 4.99072ZM5.86956 5.08108C7.79596 3.58435 10.2025 2.84241 12.6373 2.99462C15.0721 3.14682 17.3675 4.1827 19.0925 5.9077C20.8175 7.6327 21.8534 9.92814 22.0056 12.3629C22.1578 14.7977 21.4159 17.2042 19.9191 19.1307C18.4224 21.0571 16.2738 22.3707 13.877 22.825C11.6245 23.2519 9.29841 22.8922 7.28526 21.8139L4.5742 22.5869L4.57065 22.5879C4.27142 22.672 3.95518 22.6749 3.65445 22.5963C3.35372 22.5177 3.07935 22.3604 2.85956 22.1406C2.63977 21.9209 2.48249 21.6465 2.40388 21.3458C2.32528 21.045 2.32819 20.7288 2.41232 20.4296L2.41332 20.426L3.18636 17.7149C2.10805 15.7018 1.74832 13.3757 2.17521 11.1232C2.62946 8.72637 3.94315 6.57782 5.86956 5.08108Z" fill="#DD7E8B"/>
<path fill-rule="evenodd" clip-rule="evenodd" d="M19.4889 9.9603C19.5178 9.40877 19.9884 8.98514 20.5399 9.0141C22.2579 9.10429 23.9235 9.63672 25.3752 10.5598C26.827 11.4829 28.0157 12.7653 28.8261 14.2828C29.6366 15.8003 30.0413 17.5014 30.0011 19.2213C29.9643 20.7941 29.5566 22.3337 28.8139 23.7158L29.5877 26.4296C29.6718 26.7288 29.6747 27.045 29.5961 27.3458C29.5175 27.6465 29.3602 27.9209 29.1404 28.1406C28.9206 28.3604 28.6463 28.5177 28.3455 28.5963C28.0448 28.6749 27.7286 28.672 27.4293 28.5879L27.4258 28.5869L24.7152 27.814C23.5439 28.4424 22.2575 28.8314 20.9312 28.9565C19.4586 29.0954 17.9735 28.9054 16.5832 28.4003C15.1929 27.8952 13.9322 27.0877 12.892 26.0359C11.8519 24.9842 11.0584 23.7145 10.5689 22.3187C10.3861 21.7975 10.6604 21.2269 11.1815 21.0441C11.7027 20.8613 12.2733 21.1356 12.4561 21.6567C12.8477 22.7731 13.4823 23.7885 14.3141 24.6296C15.1459 25.4707 16.1542 26.1166 17.2661 26.5205C18.378 26.9245 19.5657 27.0764 20.7434 26.9653C21.9204 26.8543 23.0581 26.4834 24.0744 25.8794C24.303 25.7428 24.5854 25.6973 24.8617 25.776L27.5393 26.5395L26.7758 23.8619C26.7003 23.597 26.7374 23.3126 26.8784 23.0759C27.5826 21.8939 27.9695 20.5501 28.0016 19.1746C28.0338 17.7991 27.7101 16.4386 27.062 15.225C26.4138 14.0114 25.4631 12.9858 24.3021 12.2475C23.1411 11.5093 21.809 11.0835 20.4351 11.0113C19.8835 10.9824 19.4599 10.5118 19.4889 9.9603Z" fill="#DD7E8B"/>
</svg>
