<svg width="32" height="33" viewBox="0 0 32 33" fill="none" xmlns="http://www.w3.org/2000/svg">
<path fill-rule="evenodd" clip-rule="evenodd" d="M14.2222 5.26465C10.9002 5.26465 8.11108 8.13334 8.11108 11.7941C8.11108 15.4548 10.9002 18.3235 14.2222 18.3235C17.5442 18.3235 20.3333 15.4548 20.3333 11.7941C20.3333 8.13334 17.5442 5.26465 14.2222 5.26465ZM6.11108 11.7941C6.11108 7.13802 9.68947 3.26465 14.2222 3.26465C18.7549 3.26465 22.3333 7.13802 22.3333 11.7941C22.3333 16.4501 18.7549 20.3235 14.2222 20.3235C9.68947 20.3235 6.11108 16.4501 6.11108 11.7941Z" fill="#DD7E8B"/>
<path fill-rule="evenodd" clip-rule="evenodd" d="M14.2222 20.3223C12.2245 20.3223 10.2585 20.8789 8.52111 21.9411C7.69449 22.4464 6.37625 23.6282 5.09354 24.9864C3.81256 26.3429 2.69308 27.7418 2.21132 28.6255C1.94697 29.1104 1.33958 29.2892 0.854667 29.0248C0.369758 28.7605 0.190962 28.1531 0.455315 27.6682C1.06571 26.5485 2.33336 24.9963 3.63946 23.6133C4.94382 22.2321 6.4126 20.886 7.47788 20.2347C9.52435 18.9835 11.8506 18.3223 14.2222 18.3223C16.5938 18.3223 18.9201 18.9835 20.9666 20.2347C21.4377 20.5228 21.5862 21.1383 21.2981 21.6095C21.01 22.0807 20.3945 22.2291 19.9233 21.9411C18.186 20.8789 16.2199 20.3223 14.2222 20.3223Z" fill="#DD7E8B"/>
<path fill-rule="evenodd" clip-rule="evenodd" d="M24.8889 22.8975C23.8702 22.8975 22.9722 23.7848 22.9722 24.971C22.9722 26.1571 23.8702 27.0445 24.8889 27.0445C25.9076 27.0445 26.8056 26.1571 26.8056 24.971C26.8056 23.7848 25.9076 22.8975 24.8889 22.8975ZM21.4722 24.971C21.4722 23.0384 22.9621 21.3975 24.8889 21.3975C26.8157 21.3975 28.3056 23.0384 28.3056 24.971C28.3056 26.9036 26.8157 28.5445 24.8889 28.5445C22.9621 28.5445 21.4722 26.9036 21.4722 24.971Z" fill="#DD7E8B"/>
<path fill-rule="evenodd" clip-rule="evenodd" d="M23.1716 18.3438C23.4045 18.2773 23.6551 18.3272 23.8446 18.478L24.851 19.2784C24.8763 19.2781 24.9015 19.2781 24.9267 19.2784L25.9331 18.478C26.1224 18.3275 26.3726 18.2774 26.6051 18.3436C27.1496 18.4984 27.6716 18.7277 28.1579 19.0251C28.3505 19.1428 28.4797 19.341 28.5099 19.5647L28.693 20.9214C28.7157 20.9451 28.7383 20.969 28.7607 20.9929L30.0122 21.1822C30.2443 21.2173 30.4467 21.3592 30.5589 21.5655C30.836 22.0751 31.0491 22.6196 31.1934 23.1855C31.2478 23.3988 31.2057 23.6252 31.0784 23.8048L30.3009 24.9008C30.3015 24.9432 30.302 24.9916 30.3018 25.0423L31.0784 26.1369C31.2055 26.3162 31.2477 26.5422 31.1936 26.7552C31.0499 27.322 30.8365 27.8672 30.5584 28.377C30.4461 28.5829 30.244 28.7244 30.0122 28.7595L28.7564 28.9494C28.7364 28.9708 28.7152 28.9934 28.6935 29.0164L28.5099 30.377C28.4797 30.601 28.3501 30.7994 28.1571 30.9171C27.671 31.2134 27.1497 31.4424 26.6061 31.5978C26.3733 31.6644 26.1227 31.6144 25.9331 31.4637L24.9267 30.6633C24.9015 30.6635 24.8763 30.6635 24.851 30.6633L23.8446 31.4637C23.6554 31.6142 23.4052 31.6642 23.1726 31.5981C22.6281 31.4433 22.1061 31.2139 21.6198 30.9166C21.4273 30.7988 21.298 30.6007 21.2678 30.377L21.0843 29.0169C21.0629 28.9945 21.0416 28.9719 21.0203 28.9492L19.7656 28.7595C19.5334 28.7243 19.3311 28.5825 19.2189 28.3762C18.9418 27.8666 18.7286 27.322 18.5844 26.7561C18.53 26.5428 18.572 26.3164 18.6994 26.1369L19.4769 25.0409C19.4763 24.9985 19.4758 24.9501 19.4759 24.8994L18.6994 23.8048C18.5722 23.6255 18.5301 23.3995 18.5841 23.1864C18.7279 22.6197 18.9413 22.0745 19.2193 21.5646C19.3316 21.3588 19.5337 21.2173 19.7656 21.1822L21.0203 20.9924C21.0416 20.9698 21.0629 20.9472 21.0843 20.9247L21.2678 19.5647C21.2981 19.3407 21.4277 19.1422 21.6207 19.0246C22.1067 18.7282 22.628 18.4992 23.1716 18.3438ZM20.9827 25.2396C20.9896 25.4057 20.9412 25.5693 20.845 25.7048L20.1313 26.7108C20.1997 26.9241 20.2806 27.1323 20.3736 27.3344L21.5066 27.5057C21.6793 27.5319 21.8374 27.6174 21.9537 27.7476C22.0742 27.8824 22.198 28.0135 22.3252 28.1409C22.4411 28.257 22.5158 28.4079 22.5377 28.5705L22.7045 29.8071C22.8745 29.8949 23.0489 29.9721 23.2268 30.0385L24.1387 29.3133C24.2903 29.1927 24.4826 29.1355 24.6755 29.1535C24.8175 29.1668 24.9603 29.1668 25.1023 29.1535C25.2951 29.1355 25.4875 29.1927 25.6391 29.3133L26.5506 30.0382C26.7286 29.9717 26.9032 29.8944 27.0733 29.8066L27.2401 28.5705C27.2625 28.4044 27.3399 28.2506 27.46 28.1336C27.5144 28.0806 27.6029 27.9873 27.6859 27.8979C27.7256 27.8552 27.7612 27.8164 27.7869 27.7883L27.8171 27.7552L27.825 27.7465L27.827 27.7443C27.943 27.6162 28.1003 27.5316 28.2712 27.5057L29.4046 27.3343C29.4976 27.1325 29.5785 26.9243 29.6467 26.7112L28.9327 25.7048C28.8304 25.5605 28.7823 25.3848 28.797 25.2085C28.8019 25.1502 28.8029 25.0343 28.8008 24.9083C28.7998 24.8506 28.7984 24.7983 28.7972 24.7605L28.7956 24.7164L28.7952 24.7051L28.7951 24.7025L29.5444 24.6708M20.9827 25.2396C20.9827 25.2396 20.9827 25.2397 20.9827 25.2396V25.2396Z" fill="#DD7E8B"/>
</svg>
