<svg width="32" height="32" viewBox="0 0 32 32" fill="none" xmlns="http://www.w3.org/2000/svg">
<path d="M8.95 18L4 22V6C4 5.73478 4.10536 5.48043 4.29289 5.29289C4.48043 5.10536 4.73478 5 5 5H21C21.2652 5 21.5196 5.10536 21.7071 5.29289C21.8946 5.48043 22 5.73478 22 6V17C22 17.2652 21.8946 17.5196 21.7071 17.7071C21.5196 17.8946 21.2652 18 21 18H8.95Z" stroke="#333333" stroke-width="2" stroke-linecap="round" stroke-linejoin="round"/>
<path d="M10 18V23C10 23.2652 10.1054 23.5196 10.2929 23.7071C10.4804 23.8946 10.7348 24 11 24H23.05L28 28V12C28 11.7348 27.8946 11.4804 27.7071 11.2929C27.5196 11.1054 27.2652 11 27 11H22" stroke="#333333" stroke-width="2" stroke-linecap="round" stroke-linejoin="round"/>
<path d="M13.7246 13.0342H12.4795C12.4827 12.7412 12.5055 12.4889 12.5479 12.2773C12.5934 12.0625 12.6699 11.8688 12.7773 11.6963C12.888 11.5238 13.0345 11.3529 13.2168 11.1836C13.3698 11.0469 13.5033 10.9167 13.6172 10.793C13.7311 10.6693 13.8206 10.5423 13.8857 10.4121C13.9508 10.2786 13.9834 10.1305 13.9834 9.96777C13.9834 9.77897 13.9541 9.62272 13.8955 9.49902C13.8402 9.37207 13.7555 9.27604 13.6416 9.21094C13.5309 9.14583 13.391 9.11328 13.2217 9.11328C13.0817 9.11328 12.9515 9.14421 12.8311 9.20605C12.7106 9.26465 12.6113 9.35579 12.5332 9.47949C12.4583 9.60319 12.4193 9.76595 12.416 9.96777H11C11.0098 9.52181 11.1123 9.15397 11.3076 8.86426C11.5062 8.57129 11.7715 8.35482 12.1035 8.21484C12.4355 8.07161 12.8083 8 13.2217 8C13.6774 8 14.068 8.07487 14.3936 8.22461C14.7191 8.37109 14.9681 8.58757 15.1406 8.87402C15.3132 9.15723 15.3994 9.50228 15.3994 9.90918C15.3994 10.1924 15.3441 10.4447 15.2334 10.666C15.1227 10.8841 14.9779 11.0876 14.7988 11.2764C14.6198 11.4652 14.4229 11.6605 14.208 11.8623C14.0225 12.0283 13.8955 12.2025 13.8271 12.3848C13.762 12.5671 13.7279 12.7835 13.7246 13.0342ZM12.333 14.543C12.333 14.3346 12.4046 14.1621 12.5479 14.0254C12.6911 13.8854 12.8831 13.8154 13.124 13.8154C13.3617 13.8154 13.5521 13.8854 13.6953 14.0254C13.8418 14.1621 13.915 14.3346 13.915 14.543C13.915 14.7448 13.8418 14.9157 13.6953 15.0557C13.5521 15.1956 13.3617 15.2656 13.124 15.2656C12.8831 15.2656 12.6911 15.1956 12.5479 15.0557C12.4046 14.9157 12.333 14.7448 12.333 14.543Z" fill="#333333"/>
</svg>
